# xmcd
#
# Track frame offsets: 
#        150
#        15474
#        32918
#        50759
#        69030
#
# Disc length: 1148 seconds
#
# Revision: 0
# Processed by: cddbd v1.5.2PL0 Copyright (c) Steve Scherf et al.
# Submitted via: ExactAudioCopy v0.95a3
#
DISCID=37047a05
DTITLE=The Hewitt Sisters - Caribou Road
DYEAR=2006
DGENRE=Country
TTITLE0=Friday Nights
TTITLE1=Don't It
TTITLE2=Caribou Road
TTITLE3=Girl in a Car
TTITLE4=Somehow
EXTD=
EXTT0=
EXTT1=
EXTT2=
EXTT3=
EXTT4=
PLAYORDER=
